<svg version="1.2" xmlns="http://www.w3.org/2000/svg" viewBox="0 0 32 32" width="32" height="32">
	<style>
		.s0 { fill: #ebc17b } 
		.s1 { fill: #f0be66 } 
		.s2 { fill: #f1ba5f } 
		.s3 { fill: #f2be65 } 
		.s4 { fill: #f1be67 } 
		.s5 { fill: #f1bd66 } 
		.s6 { fill: #f2bc65 } 
		.s7 { fill: #f0bd66 } 
		.s8 { fill: #f3bd66 } 
		.s9 { fill: #ffb495 } 
		.s10 { fill: #ffff00 } 
		.s11 { fill: #ffd42a } 
		.s12 { fill: #ffdfbf } 
		.s13 { fill: #ffd46a } 
		.s14 { fill: #000000 } 
		.s15 { fill: #ff8080 } 
		.s16 { fill: #ffbf80 } 
		.s17 { fill: #ffff80 } 
		.s18 { fill: #ffffff } 
		.s19 { fill: #ffaa55 } 
		.s20 { fill: #ffaaaa } 
	</style>
	<path class="s0" d="m15.97 4.13q0.03 0.01 0.06 0.03 0.31 0.2 0.62 0.38 0.47 0.28 0.92 0.56 0.51 0.33 1.03 0.64 0.75 0.46 1.49 0.92 0.48 0.29 0.96 0.59 0.21 0.12 0.41 0.25 0.1 0.06 0.2 0.12 0.26 0.16 0.52 0.32 0.61 0.38 1.23 0.76 0.18 0.1 0.35 0.21 0.47 0.28 0.93 0.56 0.03 0.02 0.06 0.04 0.08 0.05 0.16 0.1c0.05 0.03 0.05 0.03 0.1 0.06 0.08 0.05 0.08 0.05 0.17 0.08 0.07 0.06 0.07 0.06 0.08 0.12q0.01 0.11 0.01 0.23 0 0.04 0 0.09 0 0.15 0 0.3 0 0.11 0 0.21 0 0.29 0 0.59 0 0.3 0 0.61 0 0.51 0 1.03 0 0.53 0 1.06 0 0.63-0.01 1.27 0 0.24 0 0.49 0 0.28 0 0.57 0 0.1 0 0.21c0 1.27-0.26 2.51-0.82 3.66q-0.02 0.04-0.04 0.08-0.57 1.14-1.44 2.07c-0.06 0.07-0.06 0.07-0.12 0.16q-0.03 0-0.06 0-0.01 0.03-0.02 0.05-0.07 0.12-0.18 0.22-0.04 0.04-0.08 0.08-0.04 0.04-0.08 0.08-0.04 0.04-0.09 0.08-0.23 0.24-0.49 0.46-0.05 0.04-0.1 0.09-0.05 0.04-0.11 0.09c-0.02 0.02-0.02 0.02-0.05 0.05q-0.09 0.07-0.17 0.14-0.03 0.03-0.06 0.05-0.5 0.42-1.02 0.82-0.19 0.15-0.38 0.31-0.29 0.24-0.59 0.47-0.15 0.11-0.3 0.23-0.68 0.54-1.38 1.05-0.13 0.1-0.25 0.19-0.05 0.03-0.09 0.07-0.09 0.06-0.18 0.13-0.29 0.22-0.59 0.44-0.03 0.03-0.07 0.05-0.25 0.18-0.5 0.35-0.13-0.06-0.24-0.14-0.03-0.03-0.07-0.05-0.03-0.03-0.07-0.05-0.03-0.03-0.07-0.06-0.12-0.08-0.24-0.17-0.03-0.03-0.07-0.05-0.53-0.39-1.05-0.79-0.06-0.04-0.11-0.09-0.15-0.11-0.3-0.22-0.1-0.08-0.2-0.16-0.15-0.12-0.3-0.23-0.05-0.04-0.1-0.08-0.02-0.02-0.05-0.04-0.14-0.11-0.29-0.22-0.35-0.27-0.7-0.55-0.19-0.14-0.37-0.29-0.33-0.25-0.65-0.51-0.07-0.06-0.15-0.12-0.34-0.28-0.67-0.57-0.06-0.06-0.12-0.11-0.21-0.18-0.42-0.37-0.08-0.07-0.16-0.13-0.11-0.1-0.19-0.22-0.04-0.02-0.07-0.05c-0.03-0.02-0.03-0.02-0.06-0.04q0-0.03 0-0.06-0.04-0.02-0.09-0.04c-0.05-0.04-0.05-0.04-0.09-0.1q-0.03-0.03-0.06-0.06-0.04-0.04-0.07-0.09-0.04-0.05-0.09-0.1c-1.1-1.26-1.84-2.74-2.11-4.4q-0.01-0.04-0.02-0.09c-0.07-0.5-0.07-1.01-0.07-1.52q-0.01-0.11-0.01-0.21-0.01-0.95-0.01-1.9 0-0.12 0-0.25 0-0.03 0-0.06-0.01-0.51-0.01-1.02-0.01-0.53-0.01-1.05 0-0.3-0.01-0.59 0-0.28 0-0.55 0-0.1 0-0.21c-0.02-0.49-0.02-0.49 0.11-0.63q0.17-0.15 0.38-0.23 0.15-0.07 0.28-0.16 0.11-0.07 0.22-0.13 0.43-0.27 0.87-0.54 0.33-0.2 0.66-0.4 0.17-0.1 0.32-0.2 0.24-0.14 0.47-0.28 0.52-0.32 1.04-0.64 0.26-0.16 0.52-0.32 0.07-0.05 0.15-0.1 0.07-0.04 0.14-0.09 0.03-0.02 0.07-0.04 0.03-0.02 0.06-0.03c0.05-0.04 0.05-0.04 0.11-0.1q0.07-0.04 0.14-0.07 0.24-0.12 0.45-0.26 0.31-0.2 0.63-0.39 0.31-0.18 0.61-0.38 0.7-0.43 1.4-0.85 0.22-0.13 0.44-0.26 0.07-0.05 0.15-0.1 0.04-0.02 0.07-0.04 0.02-0.01 0.05-0.02zm-0.19 2.29c-0.03 0.02-0.03 0.02-0.07 0.04q-0.04 0.03-0.08 0.05-0.08 0.06-0.16 0.11-0.04 0.02-0.08 0.05-0.15 0.09-0.3 0.18-0.3 0.18-0.6 0.37-0.41 0.26-0.83 0.51-0.42 0.25-0.83 0.51-0.54 0.34-1.08 0.67-0.22 0.13-0.43 0.26-0.03 0.01-0.06 0.03-0.46 0.28-0.92 0.57-0.29 0.18-0.59 0.36-0.23 0.13-0.45 0.27-0.13 0.08-0.26 0.16-0.04 0.02-0.08 0.05-0.08 0.04-0.15 0.09c-0.04 0.02-0.04 0.02-0.07 0.04q-0.03 0.02-0.07 0.04c-0.05 0.03-0.05 0.03-0.08 0.1q0 0.11 0 0.23 0 0.03 0 0.07 0 0.12 0 0.25 0 0.08 0 0.17 0 0.24 0 0.48 0 0.15 0 0.3 0 0.52 0 1.05 0 0.48 0 0.97 0 0.42 0 0.84 0 0.25 0 0.5c-0.02 1.17-0.02 1.17 0.13 2.32 0.01 0.05 0.01 0.05 0.02 0.1 0.27 1.17 0.89 2.2 1.73 3.06q0.02 0.02 0.05 0.05 0.27 0.28 0.57 0.54 0.05 0.05 0.11 0.09 0.28 0.25 0.57 0.48 0.12 0.09 0.23 0.19 0.1 0.07 0.19 0.15 0.03 0.02 0.05 0.05 0.37 0.3 0.75 0.59 0.18 0.13 0.35 0.28 0.28 0.23 0.57 0.44 0.26 0.19 0.51 0.39 0.23 0.18 0.46 0.36 0.18 0.14 0.36 0.29 0.36 0.28 0.73 0.54 0.02-0.02 0.05-0.04 0.16-0.12 0.32-0.24 0.34-0.26 0.68-0.53 0.22-0.17 0.45-0.34 0.18-0.14 0.35-0.28 0.23-0.18 0.46-0.35 0.52-0.41 1.03-0.82 0.2-0.17 0.41-0.32c1.72-1.35 3.2-2.88 3.54-5.13q0.03-0.26 0.04-0.52 0-0.04 0-0.09 0.02-0.43 0.02-0.86 0.01-0.08 0.01-0.17 0.01-0.78 0.01-1.57 0-0.52 0.01-1.04 0.01-0.46 0.01-0.92 0-0.25 0.01-0.49 0-0.23 0-0.45 0-0.09 0-0.17c0.02-0.29 0.02-0.29-0.11-0.54q-0.18-0.14-0.38-0.23-0.15-0.07-0.28-0.16-0.1-0.06-0.2-0.12-0.06-0.03-0.11-0.07-0.15-0.09-0.29-0.18-0.25-0.15-0.5-0.3-0.03-0.01-0.06-0.03-0.45-0.27-0.89-0.55-0.34-0.2-0.67-0.41-0.46-0.28-0.92-0.57-0.2-0.12-0.4-0.24-0.04-0.03-0.08-0.05-0.34-0.21-0.68-0.42-0.35-0.21-0.7-0.43-0.37-0.23-0.73-0.46-0.05-0.03-0.11-0.06-0.04-0.03-0.09-0.06-0.09-0.05-0.17-0.11c-0.1 0-0.13 0.02-0.22 0.08z"/>
	<path class="s0" d="m15.94 8.22c0.03 0.01 0.03 0.01 0.06 0.03q0.03 0.12 0.06 0.23 0.01 0.04 0.02 0.08 0.01 0.08 0.03 0.16 0.05 0.23 0.11 0.46 0.01 0.05 0.02 0.1 0.12 0.53 0.25 1.06 0.27 1.08 0.52 2.17 0.03 0.1 0.05 0.21 0.04 0.17 0.08 0.34 0.02 0.06 0.03 0.13 0.02 0.08 0.04 0.17 0.01 0.05 0.02 0.1c0.02 0.07 0.02 0.07 0.02 0.13q0.18-0.09 0.35-0.18 0.06-0.03 0.12-0.06 0.09-0.04 0.17-0.09 0.06-0.03 0.11-0.05c0.13-0.07 0.13-0.07 0.25-0.15q0-0.03 0-0.06 0.04-0.01 0.08-0.01 0.15-0.03 0.27-0.1c0.05-0.02 0.05-0.02 0.1-0.05q0.05-0.03 0.1-0.05 0.05-0.03 0.1-0.06 0.34-0.18 0.67-0.36 0.34-0.19 0.69-0.36 0.04-0.02 0.08-0.05 0.03-0.01 0.07-0.03 0.03-0.02 0.06-0.04c0.06-0.02 0.06-0.02 0.16 0.02q-0.03 0.02-0.06 0.04-0.14 0.18-0.25 0.38-0.24 0.41-0.48 0.81-0.23 0.36-0.45 0.73-0.21 0.35-0.43 0.7c-0.01 0.03-0.01 0.03-0.03 0.06q-0.05 0.08-0.09 0.15-0.08 0.13-0.15 0.25 0.77 0.22 1.55 0.43 0.17 0.05 0.35 0.09 0.13 0.04 0.26 0.07 0.07 0.02 0.13 0.04 0.09 0.02 0.18 0.04 0.05 0.02 0.1 0.03c0.09 0.02 0.09 0.02 0.21 0.02q0 0.03 0 0.06 0.05 0.01 0.11 0.01 0.2 0.03 0.4 0.09 0.03 0.01 0.07 0.02 0.11 0.03 0.22 0.06 0.07 0.02 0.15 0.04 0.18 0.05 0.36 0.09-0.01 0.04-0.03 0.07-0.12 0.03-0.24 0.06-0.42 0.1-0.84 0.22-0.63 0.18-1.25 0.34c-0.04 0.01-0.04 0.01-0.08 0.02q-0.03 0.01-0.07 0.02-0.59 0.15-1.17 0.31c-0.05 0.01-0.05 0.01-0.09 0.02q-0.24 0.07-0.48 0.13c0.02 0.04 0.02 0.04 0.04 0.07q0.39 0.63 0.76 1.27 0.34 0.57 0.68 1.14 0.11 0.18 0.22 0.37 0.04 0.05 0.07 0.11 0.02 0.04 0.04 0.07-0.03 0.03-0.06 0.07-0.02-0.02-0.04-0.03-0.26-0.16-0.52-0.3-0.84-0.46-1.67-0.94-0.13-0.07-0.26-0.15-0.05-0.03-0.09-0.05-0.09-0.05-0.17-0.1-0.04-0.02-0.08-0.04-0.04-0.02-0.07-0.04-0.11-0.07-0.22-0.14-0.01 0.04-0.01 0.07-0.06 0.36-0.14 0.72c-0.01 0.06-0.01 0.06-0.03 0.12q-0.03 0.16-0.06 0.33-0.02 0.1-0.05 0.2-0.27 1.3-0.55 2.6 0 0.03-0.01 0.07-0.04 0.17-0.08 0.34-0.06 0.28-0.11 0.56c-0.01 0.05-0.01 0.05-0.02 0.09q-0.02 0.07-0.03 0.15c-0.03 0.15-0.03 0.15-0.1 0.22q-0.09-0.39-0.18-0.79-0.01-0.03-0.02-0.06-0.31-1.34-0.61-2.69-0.04-0.16-0.07-0.32-0.02-0.08-0.04-0.16-0.08-0.38-0.17-0.76-0.01-0.06-0.03-0.12-0.02-0.1-0.05-0.2c-0.01-0.05-0.01-0.05-0.02-0.09-0.01-0.04-0.01-0.04-0.02-0.08-0.01-0.07-0.01-0.07-0.01-0.2q-0.8 0.44-1.58 0.89-0.39 0.22-0.77 0.43-0.31 0.17-0.61 0.37-0.04 0.02-0.07 0.03-0.05-0.01-0.09-0.03 0.01-0.02 0.03-0.04 0.22-0.35 0.43-0.7 0.04-0.07 0.08-0.14 0.08-0.13 0.16-0.27 0.1-0.18 0.21-0.35 0.3-0.51 0.6-1.02 0.05-0.08 0.09-0.16 0.03-0.05 0.06-0.1 0.02-0.04 0.05-0.09c0.04-0.06 0.04-0.06 0.04-0.13-1.07-0.29-1.07-0.29-2.15-0.58q-0.5-0.14-1.01-0.27-0.11-0.03-0.22-0.06-0.16-0.05-0.32-0.09-0.04-0.01-0.09-0.02-0.22-0.06-0.43-0.13 0-0.02 0-0.04 0.04-0.01 0.08-0.02 1.31-0.32 2.61-0.67 0.47-0.13 0.95-0.26 0.03-0.01 0.06-0.01 0.18-0.05 0.36-0.1-0.19-0.37-0.41-0.73-0.05-0.09-0.11-0.17-0.03-0.06-0.07-0.12-0.14-0.24-0.29-0.48-0.21-0.35-0.42-0.7-0.04-0.06-0.07-0.12-0.22-0.37-0.47-0.73-0.02-0.03-0.04-0.07c0.02-0.05 0.02-0.05 0.04-0.1q0 0.03 0 0.07 0.02 0 0.04 0.01 0.16 0.05 0.29 0.12 0.03 0.02 0.07 0.04 0.1 0.05 0.2 0.1 0.07 0.04 0.14 0.07 0.43 0.23 0.85 0.46 0.47 0.25 0.94 0.49 0.22 0.12 0.44 0.23 0.03 0.02 0.07 0.04 0.09 0.05 0.17 0.09 0.12-0.35 0.21-0.72 0.02-0.11 0.05-0.22 0.04-0.17 0.08-0.33 0.1-0.43 0.21-0.86 0.01-0.05 0.02-0.09 0.26-1.05 0.52-2.09 0.03-0.1 0.06-0.2 0.03-0.12 0.06-0.25 0.07-0.29 0.14-0.58z"/>
	<path class="s1" d="m9.38 10.31c-0.05 0.1-0.08 0.15-0.18 0.2q-0.03 0.02-0.06 0.03-0.04 0.02-0.07 0.04-0.07 0.04-0.14 0.07-0.03 0.02-0.06 0.04-0.1 0.05-0.18 0.12-0.03 0-0.07 0 0 1.18 0 2.36 0 0.55 0 1.09 0 0.48 0 0.96 0 0.25 0 0.5c-0.03 1.07-0.03 1.07 0.1 2.12q0 0.08 0 0.15 0 0.04 0 0.08 0 0.03 0 0.05c-0.13-0.19-0.14-0.43-0.16-0.66q0-0.04-0.01-0.08-0.03-0.45-0.03-0.9 0-0.09 0-0.19 0-0.25 0-0.49 0-0.21 0-0.42 0-0.49 0-0.98 0-0.51 0-1.01 0-0.44 0-0.87 0-0.26 0-0.52 0-0.25 0-0.49 0-0.09 0-0.18 0-0.12 0-0.24 0-0.04 0-0.07c0-0.16 0-0.16 0.05-0.23q0.13-0.09 0.26-0.18 0.03-0.02 0.06-0.03 0.06-0.04 0.12-0.08 0.07-0.04 0.13-0.08c0.17-0.11 0.17-0.11 0.23-0.11z"/>
	<path class="s2" d="m25.19 10q0.01 0 0.03 0 0 1.42 0.01 2.83 0 0.17 0 0.34c0 0.03 0 0.03 0 0.07q0 0.53 0 1.07 0 0.56 0 1.11 0 0.31 0.01 0.62c0.01 1.91 0.01 1.91-0.24 2.58q-0.03 0-0.06 0 0.02-0.22 0.07-0.43c0.21-0.88 0.16-1.81 0.16-2.7q0-0.29 0-0.58 0.01-0.55 0.01-1.1 0-0.43 0-0.87 0-0.03 0-0.07 0-0.15 0-0.31 0-1.28 0.01-2.56z"/>
	<path class="s3" d="m15.66 22.5c0.09 0.1 0.1 0.21 0.13 0.34q0.01 0.04 0.02 0.08 0 0.03 0.01 0.07c0.01 0.04 0.01 0.04 0.02 0.07q0.01 0.1-0.03 0.19c-0.14-0.21-0.17-0.5-0.15-0.75z"/>
	<path class="s4" d="m24.91 18.66q0.01 0 0.03 0 0.02 0.32-0.13 0.62-0.03 0.02-0.06 0.03 0.03-0.23 0.1-0.45 0.01-0.06 0.03-0.12 0.01-0.04 0.03-0.08z"/>
	<path class="s5" d="m9.69 16.25q0.3 0.02 0.59 0.13 0 0.01 0 0.03-0.29 0.01-0.56-0.1-0.02-0.03-0.03-0.06z"/>
	<path class="s6" d="m16.84 19.78q0.02 0 0.04 0c0 0.21-0.02 0.37-0.1 0.56q-0.01 0-0.03 0 0.01-0.28 0.09-0.56z"/>
	<path class="s7" d="m15.34 21.09q0.14 0.25 0.13 0.54c-0.14-0.17-0.13-0.33-0.13-0.54z"/>
	<path class="s8" d="m12.16 16.91q0.22 0.02 0.43 0.09 0 0.02 0 0.03c-0.17 0.01-0.28-0.02-0.43-0.09q0-0.02 0-0.03z"/>
	<path class="s9" d="m18.94 17.22c0.06 0.03 0.06 0.03 0.06 0.03z"/>
	<path class="s10" d=""/>
	<path class="s10" d=""/>
	<path class="s11" d="m22.63 16.03c0.06 0.03 0.06 0.03 0.06 0.03z"/>
	<path class="s12" d="m17.75 13.25c0.06 0.03 0.06 0.03 0.06 0.03z"/>
	<path class="s13" d="m12.78 6c0.06 0.03 0.06 0.03 0.06 0.03z"/>
	<path class="s14" d=""/>
	<path class="s10" d=""/>
	<path class="s10" d=""/>
	<path class="s10" d=""/>
	<path class="s10" d=""/>
	<path class="s10" d=""/>
	<path class="s15" d=""/>
	<path class="s10" d=""/>
	<path class="s10" d=""/>
	<path class="s10" d=""/>
	<path class="s16" d=""/>
	<path class="s16" d=""/>
	<path class="s10" d=""/>
	<path class="s17" d=""/>
	<path class="s18" d=""/>
	<path class="s10" d=""/>
	<path class="s10" d=""/>
	<path class="s10" d=""/>
	<path class="s10" d=""/>
	<path class="s10" d=""/>
	<path class="s10" d=""/>
	<path class="s10" d=""/>
	<path class="s10" d=""/>
	<path class="s10" d=""/>
	<path class="s10" d=""/>
	<path class="s19" d=""/>
	<path class="s10" d=""/>
	<path class="s15" d=""/>
	<path class="s10" d=""/>
	<path class="s10" d=""/>
	<path class="s10" d=""/>
	<path class="s18" d=""/>
	<path class="s10" d=""/>
	<path class="s17" d=""/>
	<path class="s19" d=""/>
	<path class="s19" d=""/>
	<path class="s10" d=""/>
	<path class="s10" d=""/>
	<path class="s10" d=""/>
	<path class="s10" d=""/>
	<path class="s10" d=""/>
	<path class="s18" d=""/>
	<path class="s17" d=""/>
	<path class="s18" d=""/>
	<path class="s10" d=""/>
	<path class="s10" d=""/>
	<path class="s18" d=""/>
	<path class="s17" d=""/>
	<path class="s10" d=""/>
	<path class="s10" d=""/>
	<path class="s10" d=""/>
	<path class="s10" d=""/>
	<path class="s18" d=""/>
	<path class="s17" d=""/>
	<path class="s15" d=""/>
	<path class="s16" d=""/>
	<path class="s17" d=""/>
	<path class="s10" d=""/>
	<path class="s10" d=""/>
	<path class="s18" d=""/>
	<path class="s10" d=""/>
	<path class="s10" d=""/>
	<path class="s18" d=""/>
	<path class="s17" d=""/>
	<path class="s10" d=""/>
	<path class="s18" d=""/>
	<path class="s17" d=""/>
	<path class="s17" d=""/>
	<path class="s10" d=""/>
	<path class="s15" d=""/>
	<path class="s17" d=""/>
	<path class="s10" d=""/>
	<path class="s10" d=""/>
	<path class="s10" d=""/>
	<path class="s10" d=""/>
	<path class="s17" d=""/>
	<path class="s10" d=""/>
	<path class="s10" d=""/>
	<path class="s17" d=""/>
	<path class="s18" d=""/>
	<path class="s10" d=""/>
	<path class="s20" d=""/>
	<path class="s18" d=""/>
	<path class="s17" d=""/>
	<path class="s10" d=""/>
	<path class="s10" d=""/>
	<path class="s17" d=""/>
	<path class="s18" d=""/>
	<path class="s17" d=""/>
	<path class="s10" d=""/>
	<path class="s17" d=""/>
	<path class="s10" d=""/>
	<path class="s16" d=""/>
	<path class="s18" d=""/>
	<path class="s17" d=""/>
	<path class="s10" d=""/>
	<path class="s17" d=""/>
	<path class="s10" d=""/>
	<path class="s10" d=""/>
	<path class="s10" d=""/>
	<path class="s15" d=""/>
	<path class="s10" d=""/>
	<path class="s18" d=""/>
	<path class="s10" d=""/>
	<path class="s17" d=""/>
	<path class="s10" d=""/>
	<path class="s10" d=""/>
	<path class="s18" d=""/>
	<path class="s15" d=""/>
	<path class="s17" d=""/>
	<path class="s15" d=""/>
	<path class="s10" d=""/>
	<path class="s20" d=""/>
	<path class="s10" d=""/>
	<path class="s10" d=""/>
	<path class="s17" d=""/>
	<path class="s17" d=""/>
	<path class="s10" d=""/>
	<path class="s10" d=""/>
	<path class="s15" d=""/>
</svg>